<svg width="970" height="970" xmlns="http://www.w3.org/2000/svg">
<style>
    .heavy {
      font: bold 70px sans-serif;
      fill: #fff;
    }
</style>
 <g>
  <title>Layer 1</title>

  <rect id="svg_1" stroke-width="4" fill="#0b3d70" ry="30" rx="30" height="896" width="896" y="32" x="32"/>
  <circle id="svg_2" stroke-width="2" stroke="#8c2b26" fill="#ff5f56" r="10" cy="60" cx="68"/>
  <circle id="svg_3" stroke-width="2" stroke="#8c6f1a" fill="#ffbd2e" r="10" cy="60" cx="100"/>
  <circle id="svg_4" stroke-width="2" stroke="#1a5e2b" fill="#27c93f" r="10" cy="60" cx="132"/>
  <g id="svg_18" fill="#fff">
   <g id="svg_5">
    <g id="svg_6">
     <path id="svg_7" d="m730.44623,428.954c-0.1,-0.2 -82.4,-217.9 -82.7,-218.4c-7.3,-14 -21.7,-22.7 -37.5,-22.7l-262.4,0c-15.8,0 -30.2,8.7 -37.5,22.7c-0.3,0.5 -82.7,218.2 -82.7,218.4c-1.6,4.5 -2.6,9.4 -2.6,14.4l0,96.4c0,23.3 19,42.3 42.3,42.3l423.3,0c23.3,0 42.3,-19 42.3,-42.3l0,-96.4c0.1,-5.1 -0.8,-9.9 -2.5,-14.4zm-436.6,-95.5l40.9,0c7.8,0 14.1,-6.3 14.1,-14.1c0,-7.8 -6.3,-14.1 -14.1,-14.1l-30.2,0l10.7,-28.3l61.9,0c7.8,0 14.1,-6.3 14.1,-14.1c0,-7.8 -6.3,-14.1 -14.1,-14.1l-51.2,0l9.7,-25.8c2.5,-4.3 7.1,-6.9 12.2,-6.9l262.5,0c5,0 9.6,2.6 12.2,7l67.3,178l-421.5,0l25.5,-67.6zm396.9,220.4l-423.4,0c-7.8,0 -14.1,-6.3 -14.1,-14.1l0,-96.4c0,-7.8 6.3,-14.1 14.1,-14.1l423.3,0c7.8,0 14.1,6.3 14.1,14.1l0,96.4l0.1,0c0,7.8 -6.3,14.1 -14.1,14.1z"/>
    </g>
   </g>
   <g id="svg_8">
    <g id="svg_9">
     <path id="svg_10" d="m502.04623,476.454l-209.7,0c-7.8,0 -14.1,6.3 -14.1,14.1s6.3,14.1 14.1,14.1l209.7,0c7.8,0 14.1,-6.3 14.1,-14.1c0,-7.8 -6.3,-14.1 -14.1,-14.1z"/>
    </g>
   </g>
   <g id="svg_11">
    <g id="svg_12">
     <path id="svg_13" d="m665.74623,476.454l-21.6,0c-7.8,0 -14.1,6.3 -14.1,14.1s6.3,14.1 14.1,14.1l21.6,0c7.8,0 14.1,-6.3 14.1,-14.1c0,-7.8 -6.3,-14.1 -14.1,-14.1z"/>
    </g>
   </g>
   <g id="svg_14">
    <g id="svg_15">
     <path id="svg_16" d="m581.04623,476.454l-21.6,0c-7.8,0 -14.1,6.3 -14.1,14.1s6.3,14.1 14.1,14.1l21.6,0c7.8,0 14.1,-6.3 14.1,-14.1c0,-7.8 -6.3,-14.1 -14.1,-14.1z"/>
    </g>
   </g>
  </g>
 </g>
<text x="230" y="700" class="heavy">B12E HomeLab</text>
</svg>
