<?xml version="1.0" encoding="UTF-8" standalone="no"?>
<svg
   width="896"
   height="896"
   version="1.1"
   id="svg1"
   sodipodi:docname="icon.svg"
   inkscape:version="1.4.2 (ebf0e940, 2025-05-08)"
   xmlns:inkscape="http://www.inkscape.org/namespaces/inkscape"
   xmlns:sodipodi="http://sodipodi.sourceforge.net/DTD/sodipodi-0.dtd"
   xmlns="http://www.w3.org/2000/svg"
   xmlns:svg="http://www.w3.org/2000/svg">
  <defs
     id="defs1">
    <rect
       x="55.406769"
       y="699.51046"
       width="798.78092"
       height="161.60308"
       id="rect3" />
    <rect
       x="62.332615"
       y="727.21384"
       width="771.07754"
       height="136.20831"
       id="rect2" />
  </defs>
  <sodipodi:namedview
     id="namedview1"
     pagecolor="#ffffff"
     bordercolor="#000000"
     borderopacity="0.25"
     inkscape:showpageshadow="2"
     inkscape:pageopacity="0.0"
     inkscape:pagecheckerboard="0"
     inkscape:deskcolor="#d1d1d1"
     inkscape:zoom="0.61557277"
     inkscape:cx="529.58808"
     inkscape:cy="359.01523"
     inkscape:window-width="1464"
     inkscape:window-height="1055"
     inkscape:window-x="62"
     inkscape:window-y="34"
     inkscape:window-maximized="0"
     inkscape:current-layer="g1" />
  <g
     id="g1">
    <title
       id="title1">Layer 1</title>
    <rect
       id="svg_1"
       stroke-width="4"
       fill="#0b3d70"
       ry="30"
       rx="30"
       height="896"
       width="896"
       y="0"
       x="0" />
    <circle
       id="svg_2"
       stroke-width="2"
       stroke="#8c2b26"
       fill="#ff5f56"
       r="10"
       cy="28"
       cx="36" />
    <circle
       id="svg_3"
       stroke-width="2"
       stroke="#8c6f1a"
       fill="#ffbd2e"
       r="10"
       cy="28"
       cx="68" />
    <circle
       id="svg_4"
       stroke-width="2"
       stroke="#1a5e2b"
       fill="#27c93f"
       r="10"
       cy="28"
       cx="100" />
    <g
       id="svg_18"
       fill="#ffffff"
       transform="matrix(0.90819095,0,0,0.90819095,42.324317,97.851384)">
      <g
         id="g2"
         transform="matrix(1.4363771,0,0,1.4363771,-241.33917,-167.39396)">
        <g
           id="svg_5">
          <g
             id="svg_6">
            <path
               id="svg_7"
               d="m 730.44623,428.954 c -0.1,-0.2 -82.4,-217.9 -82.7,-218.4 -7.3,-14 -21.7,-22.7 -37.5,-22.7 h -262.4 c -15.8,0 -30.2,8.7 -37.5,22.7 -0.3,0.5 -82.7,218.2 -82.7,218.4 -1.6,4.5 -2.6,9.4 -2.6,14.4 v 96.4 c 0,23.3 19,42.3 42.3,42.3 h 423.3 c 23.3,0 42.3,-19 42.3,-42.3 v -96.4 c 0.1,-5.1 -0.8,-9.9 -2.5,-14.4 z m -436.6,-95.5 h 40.9 c 7.8,0 14.1,-6.3 14.1,-14.1 0,-7.8 -6.3,-14.1 -14.1,-14.1 h -30.2 l 10.7,-28.3 h 61.9 c 7.8,0 14.1,-6.3 14.1,-14.1 0,-7.8 -6.3,-14.1 -14.1,-14.1 h -51.2 l 9.7,-25.8 c 2.5,-4.3 7.1,-6.9 12.2,-6.9 h 262.5 c 5,0 9.6,2.6 12.2,7 l 67.3,178 h -421.5 z m 396.9,220.4 h -423.4 c -7.8,0 -14.1,-6.3 -14.1,-14.1 v -96.4 c 0,-7.8 6.3,-14.1 14.1,-14.1 h 423.3 c 7.8,0 14.1,6.3 14.1,14.1 v 96.4 h 0.1 c 0,7.8 -6.3,14.1 -14.1,14.1 z" />
          </g>
        </g>
        <g
           id="svg_8">
          <g
             id="svg_9">
            <path
               id="svg_10"
               d="m 502.04623,476.454 h -209.7 c -7.8,0 -14.1,6.3 -14.1,14.1 0,7.8 6.3,14.1 14.1,14.1 h 209.7 c 7.8,0 14.1,-6.3 14.1,-14.1 0,-7.8 -6.3,-14.1 -14.1,-14.1 z" />
          </g>
        </g>
        <g
           id="svg_11">
          <g
             id="svg_12">
            <path
               id="svg_13"
               d="m 665.74623,476.454 h -21.6 c -7.8,0 -14.1,6.3 -14.1,14.1 0,7.8 6.3,14.1 14.1,14.1 h 21.6 c 7.8,0 14.1,-6.3 14.1,-14.1 0,-7.8 -6.3,-14.1 -14.1,-14.1 z" />
          </g>
        </g>
        <g
           id="svg_14">
          <g
             id="svg_15">
            <path
               id="svg_16"
               d="m 581.04623,476.454 h -21.6 c -7.8,0 -14.1,6.3 -14.1,14.1 0,7.8 6.3,14.1 14.1,14.1 h 21.6 c 7.8,0 14.1,-6.3 14.1,-14.1 0,-7.8 -6.3,-14.1 -14.1,-14.1 z" />
          </g>
        </g>
      </g>
    </g>
  </g>
</svg>
